<svg width="63" height="90" viewBox="0 0 63 90" fill="none" xmlns="http://www.w3.org/2000/svg">
<path d="M59.6454 32.002H55.007V5.38096C55.007 2.32103 52.6897 0 49.6261 0H12.986C10.0192 0 7.6983 2.31735 7.6983 5.28765V32.0023H2.69048C1.20533 32.0023 0 33.2077 0 34.6928V38.2191V38.3124C0.186534 39.2415 0.929089 39.8908 1.76139 39.8908H7.6983V49.0743C6.11985 49.6303 5.00783 51.1155 5.00783 52.7836V55.2875C5.00783 57.422 6.86243 59.2766 8.99694 59.2766H30.5174V77.3635H14.8413C14.4718 77.3635 14.0987 77.733 14.0987 78.106V80.983V81.1696C11.9643 81.5391 10.3894 83.304 10.3894 85.5281C10.3894 87.9388 12.4306 89.98 14.8413 89.98C17.252 89.98 19.2932 87.9388 19.2932 85.5281C19.2932 83.3004 17.6251 81.4458 15.5839 81.1696V80.983V78.8486H30.518V80.983V81.1696C28.3836 81.5391 26.8087 83.304 26.8087 85.5281C26.8087 87.9388 28.8499 89.98 31.2606 89.98C33.6712 89.98 35.7124 87.9388 35.7124 85.5281C35.7124 83.3004 34.0444 81.4458 32.0031 81.1696V80.983V78.8486H47.03V80.983V81.1696C44.8956 81.5391 43.3207 83.304 43.3207 85.5281C43.3207 87.9388 45.3619 89.98 47.7726 89.98C50.1833 89.98 52.2245 87.9388 52.2245 85.5281C52.2245 83.3004 50.5564 81.4458 48.5152 81.1696V80.983V78.106C48.5152 77.7365 48.1457 77.3635 47.7726 77.3635H32.0028V59.273H53.616C55.7505 59.273 57.6052 57.5116 57.6984 55.2839V52.7799C57.6984 51.1118 56.5863 49.6267 55.0079 49.0706V48.9773V39.8872H60.6651C61.5942 39.8872 62.3332 39.1446 62.3332 38.2191V34.6928C62.3332 33.2077 61.127 32.002 59.6454 32.002ZM17.8065 85.5241C17.8065 87.1922 16.5079 88.4908 14.8398 88.4908C13.1717 88.4908 11.8731 87.1922 11.8731 85.5241C11.8731 83.856 13.1717 82.5574 14.8398 82.5574C16.5079 82.5574 17.8065 83.856 17.8065 85.5241ZM34.2256 85.5241C34.2256 87.1922 32.927 88.4908 31.2589 88.4908C29.5908 88.4908 28.2922 87.1922 28.2922 85.5241C28.2922 83.856 29.5908 82.5574 31.2589 82.5574C32.927 82.5574 34.2256 83.856 34.2256 85.5241ZM50.7375 85.5241C50.7375 87.1922 49.4388 88.4908 47.7708 88.4908C46.1027 88.4908 44.804 87.1922 44.804 85.5241C44.804 83.856 46.1027 82.5574 47.7708 82.5574C49.4388 82.5574 50.7375 83.856 50.7375 85.5241ZM1.48019 38.1255V34.6925C1.48019 33.9499 2.12949 33.4871 2.68552 33.4871H8.25298C8.99555 33.4871 9.45831 34.1364 9.45831 34.6925V38.2187C9.45831 38.4053 9.27178 38.4053 9.27178 38.4053H1.75641C1.66673 38.4017 1.57346 38.3085 1.48019 38.1255ZM56.2117 52.7796V55.2835C56.1185 56.6754 55.0064 57.7875 53.6146 57.7875L8.99583 57.7911C7.60399 57.7911 6.49187 56.6791 6.49187 55.2871V52.7832C6.49187 51.3913 7.6039 50.2792 8.99583 50.2792H53.7082C55.1001 50.2756 56.2117 51.3876 56.2117 52.7796ZM53.5212 48.7905H9.18263V39.8868H9.27589C10.205 39.8868 10.944 39.1442 10.944 38.2187V34.6925C10.944 33.5804 10.2014 32.558 9.18259 32.1885V5.28738C9.18259 3.15296 10.8507 1.48487 12.9851 1.48487H49.6252C51.8529 1.48487 53.521 3.15296 53.521 5.38068V32.0954C52.3157 32.3752 51.3866 33.394 51.3866 34.6926V38.2188V38.3121C51.5731 39.2412 52.2225 39.8905 53.148 39.8905H53.5175L53.5212 48.7905ZM60.8501 38.2148C60.8501 38.4013 60.6636 38.4013 60.6636 38.4013H53.1482C53.0549 38.4013 52.9617 38.4013 52.8684 38.1215V34.6884C52.8684 33.9459 53.5177 33.4831 54.0737 33.4831H59.6412C60.3838 33.4831 60.8465 34.1324 60.8465 34.6884L60.8501 38.2148Z" fill="#00343F"/>
<path fill-rule="evenodd" clip-rule="evenodd" d="M42.9562 24.2237C43.3452 23.8247 43.986 23.8209 44.3801 24.2149L44.4718 24.3077C44.8621 24.6979 44.8627 25.3301 44.4728 25.7208L30.8 39.422C30.4618 39.7608 29.9077 39.7215 29.6183 39.3516C29.54 39.3077 29.4653 39.2532 29.3986 39.1866L21.7218 31.5098C21.3313 31.1193 21.3313 30.4853 21.7218 30.0948L21.8224 29.9942C22.213 29.6037 22.8469 29.6037 23.2375 29.9942L30.3752 37.1329L42.9562 24.2237Z" fill="#00343F"/>
</svg>
