<svg width="85" height="85" viewBox="0 0 85 85" fill="none" xmlns="http://www.w3.org/2000/svg">
<path d="M24.8542 56.1004H74.7999C75.5904 56.1004 76.279 55.5479 76.4574 54.7743L84.9574 17.3743C85.0679 16.8728 84.9489 16.3373 84.6259 15.9378C84.3029 15.5383 83.8184 15.3003 83.2998 15.3003H16.7109L13.5575 1.32606C13.3875 0.552553 12.6905 0 11.9 0H1.7C0.764995 0 0 0.764995 0 1.7C0 2.63501 0.764995 3.4 1.7 3.4H10.54L13.6 16.9663V17.0003C13.6 17.2723 13.668 17.5188 13.7785 17.7483L22.0065 54.1789L17.7905 62.6109C17.0255 64.1408 17.102 65.9174 18.003 67.3794C18.904 68.8413 20.468 69.6999 22.1765 69.6999H24.2419C22.9074 71.3149 22.0999 73.3889 22.0999 75.6499C22.0999 80.8095 26.2904 85 31.4499 85C36.6095 85 40.8 80.8095 40.8 75.6499C40.8 73.389 39.9925 71.3149 38.6579 69.6999H58.242C56.9074 71.3149 56.0999 73.3889 56.0999 75.6499C56.0999 80.8095 60.2904 85 65.45 85C70.6095 85 74.8 80.8095 74.8 75.6499C74.8 73.389 73.9925 71.3149 72.658 69.6999H74.8C75.735 69.6999 76.5 68.9349 76.5 67.9999C76.5 67.0649 75.735 66.2999 74.8 66.2999H22.1767C21.4202 66.2999 21.0292 65.8069 20.9017 65.5859C20.7657 65.3734 20.5022 64.8039 20.8337 64.1324L24.8542 56.1004ZM17.4847 18.7004H81.1752L73.4486 52.7004H25.1599L17.4847 18.7004ZM37.4006 75.6507C37.4006 78.9317 34.7316 81.6007 31.4505 81.6007C28.1694 81.6007 25.5004 78.9318 25.5004 75.6507C25.5004 72.3696 28.1694 69.7006 31.4505 69.7006C34.7316 69.7006 37.4006 72.3696 37.4006 75.6507ZM71.4006 75.6507C71.4006 78.9317 68.7316 81.6007 65.4505 81.6007C62.1694 81.6007 59.5005 78.9318 59.5005 75.6507C59.5005 72.3696 62.1694 69.7006 65.4505 69.7006C68.7316 69.7006 71.4006 72.3696 71.4006 75.6507Z" fill="#4D4D4B"/>
</svg>
