<svg width="23" height="13" viewBox="0 0 23 13" fill="none" xmlns="http://www.w3.org/2000/svg">
<path fill-rule="evenodd" clip-rule="evenodd" d="M19.7793 0.403346C20.3171 -0.134449 21.1888 -0.134449 21.7265 0.403346C22.2642 0.941156 22.2643 1.81287 21.7265 2.35061L12.3437 11.7324C12.2793 11.8607 12.1949 11.9818 12.0879 12.0889C11.8049 12.3719 11.4293 12.5041 11.0586 12.4893C10.692 12.5007 10.3218 12.3678 10.042 12.0879C9.93553 11.9815 9.85042 11.8619 9.78612 11.7344L0.403306 2.35061C-0.134417 1.81281 -0.134454 0.941123 0.403306 0.403346C0.941097 -0.134164 1.81288 -0.134331 2.35057 0.403346L11.0644 9.11721L19.7793 0.403346Z" fill="#4D4D4B"/>
</svg>
