<svg width="94" height="95" viewBox="0 0 94 95" fill="none" xmlns="http://www.w3.org/2000/svg">
<path d="M5.1875 0C2.3359 0 0 2.3398 0 5.1914V50.3514C0 53.203 2.3359 55.5506 5.1875 55.5506H38.6325C41.4841 55.5506 43.8239 53.2029 43.8239 50.3514V5.1914C43.8239 2.3398 41.4841 0 38.6325 0H5.1875ZM54.6875 0C51.8359 0 49.5 2.3398 49.5 5.1914V28.5114C49.5 31.363 51.8359 33.6989 54.6875 33.6989H88.1325C90.9841 33.6989 93.32 31.363 93.32 28.5114V5.1914C93.32 2.3398 90.9841 0 88.1325 0H54.6875ZM5.1875 2.9453H38.6325C39.9059 2.9453 40.8825 3.91796 40.8825 5.1914V50.3514C40.8825 51.6248 39.9059 52.6092 38.6325 52.6092H5.1875C3.9141 52.6092 2.9414 51.6248 2.9414 50.3514V5.1914C2.9414 3.918 3.91406 2.9453 5.1875 2.9453ZM54.6875 2.9453H88.1325C89.4059 2.9453 90.3786 3.91796 90.3786 5.1914V28.5114C90.3786 29.7848 89.4059 30.7575 88.1325 30.7575H54.6875C53.4141 30.7575 52.4414 29.7848 52.4414 28.5114V5.1914C52.4414 3.918 53.4141 2.9453 54.6875 2.9453ZM54.6875 38.5823C51.8359 38.5823 49.5 40.9221 49.5 43.7737V88.9297C49.5 91.7813 51.8359 94.1211 54.6875 94.1211H88.1325C90.9841 94.1211 93.32 91.7813 93.32 88.9297V43.7697C93.32 40.9181 90.9841 38.5783 88.1325 38.5783L54.6875 38.5823ZM54.6875 41.5237H88.1325C89.4059 41.5237 90.3786 42.5003 90.3786 43.7737V88.9297C90.3786 90.2031 89.4059 91.1797 88.1325 91.1797H54.6875C53.4141 91.1797 52.4414 90.2031 52.4414 88.9297V43.7697C52.4414 42.4963 53.4141 41.5197 54.6875 41.5197V41.5237ZM5.1875 60.4337C2.3359 60.4337 0 62.7735 0 65.6251V88.9301C0 91.7817 2.3359 94.1215 5.1875 94.1215H38.6325C41.4841 94.1215 43.8239 91.7817 43.8239 88.9301V65.6251C43.8239 62.7735 41.4841 60.4337 38.6325 60.4337H5.1875ZM5.1875 63.3751H38.6325C39.9059 63.3751 40.8825 64.3517 40.8825 65.6251V88.9301C40.8825 90.2035 39.9059 91.1801 38.6325 91.1801H5.1875C3.9141 91.1801 2.9414 90.2035 2.9414 88.9301V65.6251C2.9414 64.3517 3.91406 63.3751 5.1875 63.3751Z" fill="#00343F"/>
</svg>
