<svg width="56" height="43" viewBox="0 0 56 43" fill="none" xmlns="http://www.w3.org/2000/svg">
<path d="M48.5852 5.57834L46.2002 2.82686C44.8498 1.26895 42.5115 1.07119 40.9911 2.38632L12.9618 26.6314L7.77646 38.4702L20.2474 35.0366L48.2768 10.7915C49.7972 9.47639 49.9356 7.13625 48.5852 5.57834ZM44.9741 3.88745L47.3591 6.63893C48.1105 7.50583 48.0338 8.80334 47.1877 9.53514L44.0488 12.2502L42.2084 10.127L43.5878 8.9338L42.4987 7.67742L41.1193 8.87058L38.9412 6.35781L42.0801 3.64271C42.9262 2.9109 44.2227 3.02055 44.9741 3.88745ZM10.6824 35.9566L14.3205 27.6544L37.709 7.4237L39.8871 9.93647L40.9761 11.1929L42.8166 13.3161L19.4281 33.5469L10.6824 35.9566Z" fill="#4D4D4B"/>
</svg>
