<svg width="42" height="40" viewBox="0 0 42 40" fill="none" xmlns="http://www.w3.org/2000/svg">
<path d="M38.7702 2.14942L24.2002 17.0204C24.0088 17.2196 24.0088 17.5321 24.2002 17.7314C24.3018 17.8212 24.4189 17.872 24.5518 17.872C24.6807 17.872 24.8135 17.8212 24.9111 17.7235L39.4811 2.85254C39.6725 2.65332 39.6725 2.34082 39.4811 2.1416C39.2819 1.95019 38.9694 1.95019 38.7702 2.1416L38.7702 2.14942Z" fill="#4D4D4B"/>
<path d="M41.1211 0H31.9492C31.668 0 31.4492 0.21875 31.4492 0.5C31.4492 0.78125 31.668 1 31.9492 1H40.6211V9.6719C40.6211 9.95315 40.8399 10.1719 41.1211 10.1719C41.4024 10.1719 41.6211 9.95315 41.6211 9.6719V0.5C41.6211 0.21875 41.4024 0 41.1211 0Z" fill="#4D4D4B"/>
<path d="M27.0537 3.5625V4.43945H5.12305C2.78268 4.43959 0.877091 6.34167 0.876953 8.68555V34.1797C0.877067 36.5201 2.77915 38.4256 5.12305 38.4258H31.4531C33.7936 38.4257 35.6991 36.5236 35.6992 34.1797V14.4131H36.5762V34.1797C36.5761 37.0034 34.2769 39.3027 31.4531 39.3027H5.12305C2.29944 39.3026 0.00011441 37.0034 0 34.1797V8.68555C0.000137643 5.86196 2.29937 3.56264 5.12305 3.5625H27.0537Z" fill="#4D4D4B"/>
</svg>
