<svg width="81" height="75" viewBox="0 0 81 75" fill="none" xmlns="http://www.w3.org/2000/svg">
<path fill-rule="evenodd" clip-rule="evenodd" d="M53.9735 34.5714C54.5278 34.0172 55.4271 34.0172 55.9813 34.5714C56.5356 35.1257 56.5355 36.0249 55.9813 36.5792L41.9198 50.6398C41.7516 50.808 41.5512 50.9242 41.3388 50.9904C40.7993 51.2883 40.1079 51.2097 39.6503 50.7521L31.7694 42.8712C31.2151 42.3169 31.2152 41.4187 31.7694 40.8644C32.3237 40.3101 33.222 40.3101 33.7763 40.8644L40.7284 47.8165L53.9735 34.5714Z" fill="#4D4D4B"/>
<path d="M29.7125 12.0059C13.3282 18.6255 5.38496 37.3387 12.0046 53.723C15.2122 61.6619 21.317 67.8768 29.1961 71.2211C29.4414 71.3252 29.7077 71.3207 29.9381 71.2276C30.1686 71.1345 30.3632 70.9528 30.4673 70.7075L32.7478 65.3351C32.8489 65.0969 32.8505 64.8311 32.7533 64.5905C32.6571 64.3525 32.4678 64.1609 32.2321 64.0587C26.2629 61.5333 21.6365 56.8273 19.2066 50.8131C14.1921 38.4016 20.2082 24.2233 32.6224 19.2076C45.0339 14.193 59.2122 20.2092 64.2279 32.6233C64.4284 33.1197 64.9947 33.3622 65.4936 33.1606L70.8952 30.9783C71.3941 30.7767 71.634 30.2114 71.4325 29.7125C64.8128 13.3282 46.0977 5.38576 29.7154 12.0047L29.7125 12.0059ZM30.5863 65.4545L29.0635 69.042C22.3853 65.9576 17.1588 60.6254 14.1873 53.8904L17.768 52.4437C17.7756 52.4406 17.7787 52.4335 17.7863 52.4304C20.364 58.2055 24.8584 62.7822 30.5841 65.4558L30.5863 65.4545ZM17.0664 50.6349C17.0588 50.638 17.0492 50.636 17.0416 50.639L13.4634 52.0847C10.8511 44.9776 11.1016 37.468 13.6618 30.8629L17.2031 32.3661C17.2138 32.3706 17.2275 32.3681 17.2381 32.3726C15.0633 38.0647 14.8507 44.5162 17.069 50.634L17.0664 50.6349ZM17.9886 30.5995C17.9779 30.595 17.9703 30.5833 17.9596 30.5788L14.4183 29.0756C17.3945 22.6474 22.6202 17.2516 29.5462 14.1909L30.9919 17.7692C30.9949 17.7768 31.0031 17.7823 31.0061 17.7899C25.0655 20.4464 20.5723 25.0808 17.9875 30.597L17.9886 30.5995ZM32.8004 17.0679C32.7974 17.0603 32.7994 17.0507 32.7963 17.0431L31.3506 13.4649C38.4577 10.8526 45.9673 11.103 52.5724 13.6633L51.0692 17.2046C51.0647 17.2153 51.0673 17.229 51.0602 17.2406C45.3681 15.0658 38.9166 14.8532 32.7978 17.0689L32.8004 17.0679ZM65.646 31.0015C62.9906 25.0634 58.3511 20.5723 52.8358 17.9901C52.8404 17.9794 52.8495 17.9728 52.854 17.9621L54.3602 14.4137C60.791 17.3889 66.1915 22.6187 69.2496 29.5457L65.646 31.0015Z" fill="#4D4D4B"/>
</svg>
