<svg width="26" height="32" viewBox="0 0 26 32" fill="none" xmlns="http://www.w3.org/2000/svg">
<path d="M12.6524 15.2045C15.5693 15.2045 17.9425 12.8313 17.9425 9.91437C17.9425 6.99746 15.5693 4.62427 12.6524 4.62427C9.7355 4.62427 7.3623 6.99746 7.3623 9.91437C7.3623 12.8313 9.7355 15.2045 12.6524 15.2045ZM12.6524 5.29009C15.2023 5.29009 17.2767 7.36451 17.2767 9.91437C17.2767 12.4642 15.2023 14.5386 12.6524 14.5386C10.1026 14.5386 8.02813 12.4642 8.02813 9.91437C8.02813 7.36451 10.1026 5.29009 12.6524 5.29009Z" fill="#4D4D4B"/>
<path d="M15.6479 24.5473C18.3145 20.5394 22.5663 13.5741 22.5663 9.91438C22.5663 4.44762 18.1187 0 12.6519 0C7.18515 0 2.73754 4.44762 2.73754 9.91438C2.73754 13.3307 6.45882 19.7023 9.6586 24.5491C3.77926 24.9671 0 26.4007 0 28.2265C0 30.3779 5.43913 32 12.6519 32C19.8647 32 25.304 30.362 25.304 28.1897C25.304 26.3768 21.438 24.9252 15.6479 24.5473ZM12.6519 0.665824C17.7516 0.665824 21.9005 4.81467 21.9005 9.91438C21.9005 14.1366 15.4901 23.6712 12.6519 27.6846C9.79751 23.642 3.40336 14.1161 3.40336 9.91438C3.40336 4.81467 7.5522 0.665824 12.6519 0.665824ZM10.0782 25.1615C10.8938 26.3822 11.5724 27.3367 11.9818 27.9126C12.1736 28.1824 12.3121 28.3772 12.356 28.4483L12.6151 28.7941L12.8737 28.4483C12.9742 28.315 13.9117 27.0188 15.1519 25.1615C20.9688 25.4874 24.5641 26.9819 24.5641 28.1973C24.5739 28.4292 24.4637 28.6662 24.2375 28.9017C22.9052 30.2897 18.0327 31.297 12.6519 31.297C5.58833 31.297 0.665824 29.6593 0.665824 28.1897C0.665824 26.9834 4.26138 25.4895 10.0782 25.1615Z" fill="#4D4D4B"/>
</svg>
