<svg width="87" height="80" viewBox="0 0 87 80" fill="none" xmlns="http://www.w3.org/2000/svg">
<path fill-rule="evenodd" clip-rule="evenodd" d="M58.7293 20.8671L44.5889 42.6088C44.3629 42.9551 44.0457 43.2103 43.6921 43.3634L37.2979 46.0866C36.0111 46.6334 34.48 45.7403 34.5018 44.1545L34.4034 37.3084C34.3998 36.8964 34.5164 36.5137 34.7278 36.1929L48.8683 14.4512C52.3534 9.09236 62.2 15.5339 58.7293 20.8671ZM25.0375 80H61.8715C64.5255 80 64.5255 75.9681 61.8715 75.9681H57.4824C55.0692 72.8294 53.1698 69.0381 52.5756 65.1117H78.8118C83.2665 65.1117 86.9084 61.4736 86.9084 57.0151L86.9047 8.0966C86.9047 3.65279 83.2556 0 78.8081 0L8.0966 0.00364547C3.64187 0.00364547 0 3.64179 0 8.10024V57.0188C0 61.4662 3.64915 65.1154 8.0966 65.1154H34.3328C33.7385 69.0452 31.8429 72.8292 29.426 75.9718H25.0369C22.3829 75.9681 22.3836 80 25.0375 80ZM34.3225 75.9681C36.4004 72.6836 37.9133 68.9725 38.3872 65.1117H48.5175C48.9914 68.9723 50.5043 72.6834 52.5823 75.9681H34.3225ZM78.8119 4.03589H8.09754C5.86654 4.03589 4.03281 5.86952 4.03281 8.10061V57.0192C4.03281 59.2611 5.85552 61.0839 8.09754 61.0839H78.8091C81.0401 61.0839 82.8738 59.2503 82.8738 57.0192V8.09688C82.8738 5.85496 81.0539 4.03589 78.8119 4.03589ZM26.1893 52.6661C23.5354 52.6661 23.5354 48.6342 26.1893 48.6342H60.7192C63.3731 48.6342 63.3731 52.6661 60.7192 52.6661H26.1893ZM41.5551 39.9031L55.3605 18.6793C55.911 17.8336 52.7723 15.8213 52.2363 16.6452L38.4272 37.8726L38.4746 41.2119L41.5551 39.9031Z" fill="#4D4D4B"/>
</svg>
