<svg width="84" height="72" viewBox="0 0 84 72" fill="none" xmlns="http://www.w3.org/2000/svg">
<path d="M1.87565 72H67.5303C68.5651 72 69.4046 71.1605 69.4046 70.1257V27.2158C69.4046 26.9997 69.3672 26.7849 69.2937 26.5813L64.4924 13.2398C64.2251 12.4959 63.5186 12 62.729 12H6.67421C5.88322 12 5.17812 12.4959 4.91077 13.2398L0.110824 26.5813C0.0374047 26.7849 0 26.9997 0 27.2158V70.1257C0.00138527 71.1605 0.839471 72 1.87565 72ZM3.74853 68.2515V29.09H24.5912V39.2302C24.5912 39.9145 24.9639 40.5448 25.5637 40.8731C26.1635 41.2014 26.8949 41.1778 27.4726 40.8107L34.7009 36.202L41.9292 40.8107C42.2354 41.0061 42.5858 41.1044 42.9363 41.1044C43.2466 41.1044 43.5555 41.0282 43.8381 40.8731C44.4379 40.5434 44.8106 39.9145 44.8106 39.2302V29.09H65.6547V68.2529L3.74853 68.2515ZM41.0634 29.09V35.8127L35.7094 32.3994C35.0943 32.0074 34.3089 32.0074 33.6938 32.3994L28.3398 35.8127V29.09H41.0634ZM7.9916 15.7471H61.4116L64.8623 25.3415H4.5409L7.9916 15.7471ZM25.3393 52.9138H12.0643C11.0295 52.9138 10.19 53.7533 10.19 54.7881V61.7089C10.19 62.7437 11.0295 63.5831 12.0643 63.5831H25.3393C26.3741 63.5831 27.2135 62.7437 27.2135 61.7089V54.7881C27.2135 53.7533 26.3755 52.9138 25.3393 52.9138ZM23.4664 59.8346H13.9399V56.6623H23.4664V59.8346Z" fill="#00343F"/>
<circle cx="64" cy="20" r="18.5" fill="white" stroke="#00343F" stroke-width="3"/>
<mask id="path-3-inside-1_2_39" fill="white">
<path fill-rule="evenodd" clip-rule="evenodd" d="M74.2093 12.0606C74.7951 11.4749 75.7447 11.4749 76.3304 12.0606C76.916 12.6464 76.916 13.5959 76.3304 14.1817L63.18 27.3331C62.5942 27.9185 61.6445 27.9187 61.0589 27.3331C61.0021 27.2762 60.9524 27.2145 60.9066 27.1515C60.6448 27.0896 60.3959 26.9582 60.1917 26.754L53.1507 19.713C52.565 19.1272 52.565 18.1767 53.1507 17.5909C53.7365 17.0055 54.6862 17.0053 55.2718 17.5909L61.9749 24.294L74.2093 12.0606Z"/>
</mask>
<path fill-rule="evenodd" clip-rule="evenodd" d="M74.2093 12.0606C74.7951 11.4749 75.7447 11.4749 76.3304 12.0606C76.916 12.6464 76.916 13.5959 76.3304 14.1817L63.18 27.3331C62.5942 27.9185 61.6445 27.9187 61.0589 27.3331C61.0021 27.2762 60.9524 27.2145 60.9066 27.1515C60.6448 27.0896 60.3959 26.9582 60.1917 26.754L53.1507 19.713C52.565 19.1272 52.565 18.1767 53.1507 17.5909C53.7365 17.0055 54.6862 17.0053 55.2718 17.5909L61.9749 24.294L74.2093 12.0606Z" fill="#4D4D4B"/>
<path d="M74.2093 12.0606L73.5023 11.3535L73.5022 11.3535L74.2093 12.0606ZM76.3304 12.0606L77.0376 11.3536L77.0375 11.3536L76.3304 12.0606ZM76.3304 14.1817L77.0375 14.8888L77.0377 14.8887L76.3304 14.1817ZM63.18 27.3331L63.8869 28.0405L63.8871 28.0402L63.18 27.3331ZM61.0589 27.3331L60.3518 28.0402L60.3518 28.0402L61.0589 27.3331ZM60.9066 27.1515L61.7156 26.5636L61.4975 26.2635L61.1365 26.1782L60.9066 27.1515ZM60.1917 26.754L60.8989 26.0469L60.8988 26.0469L60.1917 26.754ZM53.1507 19.713L52.4436 20.4201L52.4436 20.4201L53.1507 19.713ZM53.1507 17.5909L52.4438 16.8836L52.4436 16.8838L53.1507 17.5909ZM55.2718 17.5909L55.9789 16.8838L55.9789 16.8838L55.2718 17.5909ZM61.9749 24.294L61.2678 25.0011L61.9749 25.7082L62.682 25.0012L61.9749 24.294ZM74.2093 12.0606L74.9164 12.7678C75.1117 12.5725 75.4281 12.5726 75.6233 12.7677L76.3304 12.0606L77.0375 11.3536C76.0612 10.3772 74.4785 10.3774 73.5023 11.3535L74.2093 12.0606ZM76.3304 12.0606L75.6232 12.7677C75.8184 12.9628 75.8184 13.2794 75.6232 13.4748L76.3304 14.1817L77.0377 14.8887C78.0135 13.9125 78.0137 12.3299 77.0376 11.3536L76.3304 12.0606ZM76.3304 14.1817L75.6233 13.4747L62.4729 26.626L63.18 27.3331L63.8871 28.0402L77.0375 14.8888L76.3304 14.1817ZM63.18 27.3331L62.4732 26.6257C62.2776 26.8212 61.9609 26.8208 61.766 26.626L61.0589 27.3331L60.3518 28.0402C61.3282 29.0166 62.9109 29.0157 63.8869 28.0405L63.18 27.3331ZM61.0589 27.3331L61.7661 26.626C61.7583 26.6183 61.7426 26.6009 61.7156 26.5636L60.9066 27.1515L60.0976 27.7393C60.1622 27.8282 60.2458 27.9342 60.3518 28.0402L61.0589 27.3331ZM60.9066 27.1515L61.1365 26.1782C61.0461 26.1569 60.9652 26.1132 60.8989 26.0469L60.1917 26.754L59.4846 27.4611C59.8266 27.8031 60.2434 28.0223 60.6767 28.1247L60.9066 27.1515ZM60.1917 26.754L60.8988 26.0469L53.8578 19.0059L53.1507 19.713L52.4436 20.4201L59.4846 27.4611L60.1917 26.754ZM53.1507 19.713L53.8579 19.0059C53.6626 18.8106 53.6626 18.4933 53.8579 18.298L53.1507 17.5909L52.4436 16.8838C51.4673 17.8602 51.4673 19.4437 52.4436 20.4201L53.1507 19.713ZM53.1507 17.5909L53.8576 18.2982C54.0531 18.1028 54.3698 18.1031 54.5647 18.298L55.2718 17.5909L55.9789 16.8838C55.0025 15.9074 53.4199 15.9081 52.4438 16.8836L53.1507 17.5909ZM55.2718 17.5909L54.5647 18.298L61.2678 25.0011L61.9749 24.294L62.682 23.5869L55.9789 16.8838L55.2718 17.5909ZM61.9749 24.294L62.682 25.0012L74.9164 12.7678L74.2093 12.0606L73.5022 11.3535L61.2679 23.5869L61.9749 24.294Z" fill="#00343F" mask="url(#path-3-inside-1_2_39)"/>
</svg>
