<svg width="82" height="71" viewBox="0 0 82 71" fill="none" xmlns="http://www.w3.org/2000/svg">
<path d="M2.19298 70.151H78.9553C80.1651 70.151 81.1466 69.1695 81.1466 67.9596V17.79C81.1466 17.5373 81.1029 17.2863 81.017 17.0482L75.4034 1.44957C75.0908 0.579827 74.2648 0 73.3416 0H7.80337C6.87856 0 6.05417 0.579827 5.74158 1.44957L0.129573 17.0482C0.0437329 17.2863 0 17.5373 0 17.79V67.9596C0.00161963 69.1695 0.981495 70.151 2.19298 70.151ZM4.38272 65.7682V19.9814H28.7516V31.837C28.7516 32.6371 29.1873 33.3741 29.8886 33.7579C30.5899 34.1418 31.4451 34.1142 32.1205 33.685L40.5717 28.2965L49.0229 33.685C49.3808 33.9134 49.7906 34.0284 50.2004 34.0284C50.5632 34.0284 50.9244 33.9393 51.2548 33.7579C51.9561 33.3724 52.3917 32.6371 52.3917 31.837V19.9814H76.7623V65.7699L4.38272 65.7682ZM48.0106 19.9814V27.8414L41.7508 23.8506C41.0317 23.3923 40.1133 23.3923 39.3942 23.8506L33.1343 27.8414V19.9814H48.0106ZM9.34364 4.38109H71.8014L75.8358 15.5986H5.30914L9.34364 4.38109ZM29.6262 47.8357H14.1053C12.8955 47.8357 11.914 48.8172 11.914 50.0271V58.1187C11.914 59.3286 12.8955 60.3101 14.1053 60.3101H29.6262C30.8361 60.3101 31.8176 59.3286 31.8176 58.1187V50.0271C31.8176 48.8172 30.8377 47.8357 29.6262 47.8357ZM27.4365 55.9274H16.2983V52.2184H27.4365V55.9274Z" fill="#4D4D4B"/>
</svg>
