<svg width="33" height="40" viewBox="0 0 33 40" fill="none" xmlns="http://www.w3.org/2000/svg">
<path d="M13.4667 4.28783C13.458 2.29304 13.5257 0.388554 15.9841 0.0117996C16.873 -0.0576446 17.7132 0.174995 18.3539 0.827753C19.3087 1.79824 19.1525 3.03957 19.149 4.28783C23.781 5.58298 26.9632 9.36603 27.2983 14.2149C27.4094 15.8434 27.2948 17.5065 27.3244 19.1402C27.3747 21.9683 28.0587 24.5238 29.2375 27.0829C29.8816 28.4769 29.6542 28.161 30.6282 29.1141C31.6507 30.1141 31.6438 31.9544 30.6316 32.9613C29.5414 34.0446 28.1039 33.7842 26.7011 33.7825H21.498C21.4754 34.1662 21.531 34.5481 21.5171 34.9318C21.4199 37.6678 19.314 39.758 16.618 39.9975C13.1059 40.0965 10.6473 37.2059 11.1682 33.7824H6.12824C5.31575 33.7824 4.16469 33.8571 3.39216 33.713C1.69425 33.3936 0.807101 31.3519 1.49981 29.838C1.76196 29.2633 2.20465 29.0255 2.53798 28.5463C4.08487 26.3189 5.1682 22.5361 5.31749 19.8588C5.42165 17.996 5.25151 16.1245 5.35221 14.2651C5.51887 11.1957 6.84354 8.38508 9.20117 6.41442C10.2411 5.54638 12.1229 4.45801 13.4667 4.28783ZM16.0796 1.10553C14.5327 1.47879 14.5934 2.72183 14.6004 4.04823C15.2393 3.94406 15.8573 3.91802 16.5031 3.92323C17.0049 3.93018 17.5066 3.97531 18.0083 3.92323C18.0153 2.60204 17.9858 0.900641 16.0796 1.10553ZM15.9841 5.07254C11.3694 5.14372 7.27076 8.5239 6.60721 13.137C6.2652 15.5102 6.60547 17.9218 6.4145 20.3036C6.18881 23.097 5.37633 25.7809 4.02042 28.2289H28.5497C28.3327 27.741 28.0775 27.2723 27.8674 26.7827C26.1868 22.8713 26.1972 20.2081 26.1972 16.0832C26.1972 15.2533 26.2198 14.4218 26.1191 13.5971C25.5184 8.74288 20.8916 4.61978 15.9836 5.07267L15.9841 5.07254ZM5.9321 29.3591L4.78455 29.3574C1.31407 29.3609 2.20122 32.4112 3.76024 32.616C4.0276 32.6508 4.31233 32.6334 4.58144 32.6317L26.8489 32.6299C27.4079 32.6317 28.5798 32.7046 29.0677 32.5744C30.6822 32.1421 31.026 29.3504 28.0104 29.3556L5.9321 29.3591ZM12.3801 33.7827C11.5554 37.498 15.4495 40.1805 18.4476 38.2342C18.6855 38.0815 18.9129 37.9096 19.149 37.7534C20.1212 36.2968 20.6038 35.7811 20.2532 33.7829L12.3801 33.7827Z" fill="#00343F"/>
<path d="M30.3265 18.3386C30.0331 18.3421 29.7085 18.1911 29.639 17.8786C29.5435 17.4411 30.1164 17.0851 30.3769 16.8022C31.9342 15.1199 31.8751 12.2884 30.5609 10.4897C30.3179 10.1564 28.9151 8.99147 30.0644 8.76752C30.8925 8.52099 31.705 10.1408 31.9967 10.7311C32.7432 12.2397 32.8977 13.9619 32.3456 15.5626C32.0453 16.4324 31.1876 17.9202 30.3265 18.3386Z" fill="#00343F"/>
<path d="M2.62483 18.4286C1.9547 18.5414 1.17173 17.2394 0.883507 16.7533C-0.557466 14.314 -0.180712 11.5257 1.61266 9.42707C1.82099 9.18401 2.02759 8.93054 2.3071 8.76734C2.76021 8.71352 3.24808 9.01908 2.99288 9.53645C2.86267 9.7986 2.58663 10.0208 2.3939 10.2413C0.81924 12.0295 0.704662 14.6893 2.1439 16.6093C2.49807 17.0815 3.67692 17.9494 2.62483 18.4286Z" fill="#00343F"/>
</svg>
