<svg width="40" height="32" viewBox="0 0 40 32" fill="none" xmlns="http://www.w3.org/2000/svg">
<path d="M35.8654 32H3.23015C1.44818 32 0 30.5518 0 28.7699V3.23015C0 1.44818 1.44818 0 3.23015 0H35.8654C37.6474 0 39.0956 1.44818 39.0956 3.23015V28.7699C39.0956 30.5518 37.6474 32 35.8654 32ZM3.23015 1.07672C2.04038 1.07672 1.07672 2.04038 1.07672 3.23015V28.7699C1.07672 29.9596 2.04038 30.9233 3.23015 30.9233H35.8654C37.0552 30.9233 38.0188 29.9596 38.0188 28.7699V3.23015C38.0188 2.04038 37.0552 1.07672 35.8654 1.07672H3.23015Z" fill="#4D4D4B"/>
<path d="M33.0771 27.2832H5.71775C4.67872 27.2832 3.8335 26.438 3.8335 25.3989V9.43125C3.8335 8.39222 4.67872 7.547 5.71775 7.547H33.0771C34.1161 7.547 34.9614 8.39222 34.9614 9.43125V25.3989C34.9614 26.438 34.1161 27.2832 33.0771 27.2832ZM5.71775 8.08536C4.97482 8.08536 4.37185 8.68832 4.37185 9.43125V25.3989C4.37185 26.1419 4.97482 26.7448 5.71775 26.7448H33.0771C33.82 26.7448 34.423 26.1419 34.423 25.3989V9.43125C34.423 8.68832 33.82 8.08536 33.0771 8.08536H5.71775Z" fill="#4D4D4B"/>
<path d="M11.7522 7.81677H11.2139V27.0146H11.7522V7.81677Z" fill="#4D4D4B"/>
<path d="M19.6658 7.81677H19.1274V27.0146H19.6658V7.81677Z" fill="#4D4D4B"/>
<path d="M27.5852 7.81665H27.0469V27.0145H27.5852V7.81665Z" fill="#4D4D4B"/>
<path d="M34.6925 13.853H4.10303V14.3914H34.6925V13.853Z" fill="#4D4D4B"/>
<path d="M34.6925 20.485H4.10303V21.0233H34.6925V20.485Z" fill="#4D4D4B"/>
<path d="M11.2255 3.84473H4.10303V4.92144H11.2255V3.84473Z" fill="#4D4D4B"/>
</svg>
