<svg width="38" height="38" viewBox="0 0 38 38" fill="none" xmlns="http://www.w3.org/2000/svg">
<path d="M10.3211 21.1788L11.752 17.4203L13.2839 27.4488C13.3155 27.6483 13.4141 27.8312 13.5635 27.9674C13.7128 28.1035 13.904 28.1848 14.1057 28.198C14.3073 28.2111 14.5074 28.1552 14.6732 28.0396C14.8389 27.9239 14.9604 27.7554 15.0176 27.5616L19.5954 11.75L23.2173 28.8322C23.2534 29.0098 23.3436 29.1718 23.4754 29.2962C23.6072 29.4206 23.7742 29.5011 23.9536 29.5269H24.0842C24.2435 29.5324 24.4013 29.4951 24.5412 29.4189C24.6812 29.3427 24.7981 29.2303 24.8798 29.0934L28.9826 21.7606H34.6707C34.907 21.7606 35.1335 21.6668 35.3005 21.4998C35.4675 21.3327 35.5614 21.1062 35.5614 20.87C35.5614 20.6338 35.4675 20.4073 35.3005 20.2402C35.1335 20.0732 34.907 19.9794 34.6707 19.9794H28.4601C28.3018 19.9806 28.1465 20.0236 28.01 20.1038C27.8735 20.1841 27.7604 20.2988 27.6823 20.4366L24.482 26.1247L20.6167 7.9025C20.5766 7.70843 20.4721 7.53361 20.3201 7.40642C20.1681 7.27923 19.9776 7.20715 19.7795 7.20188C19.5808 7.19397 19.3851 7.25281 19.2237 7.36903C19.0623 7.48524 18.9444 7.65214 18.8889 7.84313L14.4357 23.1856L13.0048 13.8103C12.9743 13.6138 12.8789 13.4331 12.7338 13.2971C12.5888 13.1611 12.4023 13.0775 12.2042 13.0598C12.0062 13.042 11.8078 13.0911 11.6409 13.1991C11.4739 13.3072 11.3479 13.468 11.2829 13.6559L8.90793 19.9675H3.95605C3.71985 19.9675 3.49331 20.0613 3.32629 20.2284C3.15926 20.3954 3.06543 20.6219 3.06543 20.8581C3.06543 21.0943 3.15926 21.3209 3.32629 21.4879C3.49331 21.6549 3.71985 21.7488 3.95605 21.7488H9.50168C9.67957 21.7464 9.85268 21.6909 9.99872 21.5893C10.1448 21.4877 10.257 21.3447 10.3211 21.1788Z" fill="#4D4D4B"/>
<circle cx="19" cy="19" r="18" stroke="#4D4D4B" stroke-width="2"/>
</svg>
