<svg width="32" height="32" viewBox="0 0 32 32" fill="none" xmlns="http://www.w3.org/2000/svg">
<path d="M15.6923 16.3045C18.3136 16.3045 20.4471 14.1704 20.4471 11.5486V10.151C20.4471 7.52917 18.3135 5.39514 15.6923 5.39514C13.0711 5.39514 10.9375 7.52922 10.9375 10.151V11.5486C10.9375 14.1705 13.0711 16.3045 15.6923 16.3045ZM11.7588 10.1512C11.7588 7.9818 13.5234 6.21676 15.6923 6.21676C17.8612 6.21676 19.6258 7.9818 19.6258 10.1512V11.5487C19.6258 13.7181 17.8612 15.4831 15.6923 15.4831C13.5234 15.4831 11.7588 13.7181 11.7588 11.5487V10.1512Z" fill="#4D4D4B"/>
<path d="M11.7705 18.1537H19.7354C22.1808 18.1538 24.2051 20.2337 24.2051 22.8334V25.9486H7.2998V22.8334C7.2998 20.2337 9.32495 18.1537 11.7705 18.1537Z" stroke="#4D4D4B"/>
<circle cx="16" cy="16" r="15.5" stroke="#4D4D4B"/>
</svg>
