<svg width="50" height="25" viewBox="0 0 50 25" fill="none" xmlns="http://www.w3.org/2000/svg">
<path d="M49.1922 11.7817C41.1259 3.9624 32.7589 0 24.318 0C9.93327 0 0.59861 11.3844 0.208876 11.8682C-0.0822805 12.231 -0.0674742 12.7516 0.243421 13.097C7.35211 20.9953 15.2479 25 23.7134 25C38.0615 25 48.7801 13.5929 49.2292 13.1071C49.5771 12.7271 49.5623 12.1395 49.1922 11.7817ZM23.7136 23.1023C16.03 23.1023 8.80071 19.5171 2.22008 12.4481C4.35439 10.1164 12.7069 1.89245 24.318 1.89245C32.0117 1.89245 39.6977 5.45293 47.1784 12.4778C44.669 14.8934 35.2906 23.1023 23.7136 23.1023Z" fill="#4D4D4B"/>
<path d="M17.1997 12.4724C17.1997 16.63 20.5826 20.0131 24.7405 20.0131C28.8984 20.0131 32.2812 16.6303 32.2812 12.4724C32.2812 8.31449 28.8984 4.93164 24.7405 4.93164C20.5826 4.93164 17.1997 8.31449 17.1997 12.4724ZM24.7405 6.82693C27.8519 6.82693 30.3859 9.3585 30.3859 12.4724C30.3859 15.5863 27.8519 18.1178 24.7405 18.1178C21.629 18.1178 19.095 15.5838 19.095 12.4724C19.095 9.36096 21.629 6.82693 24.7405 6.82693Z" fill="#4D4D4B"/>
</svg>
